<svg width="48" height="48" viewBox="0 0 48 48" fill="none" xmlns="http://www.w3.org/2000/svg">
<path d="M15.0088 10.4431C16.325 10.4431 17.5213 10.5556 18.6088 10.7956C19.6906 11.0394 20.615 11.4144 21.3931 11.9394C22.1619 12.4644 22.7675 13.1581 23.1931 14.0394C23.615 14.9206 23.8306 16.0081 23.8306 17.2831C23.8306 18.6706 23.5119 19.8331 22.88 20.7706C22.2463 21.7081 21.3106 22.4581 20.0638 23.0581C21.7625 23.5456 23.0188 24.4081 23.855 25.6269C24.695 26.8644 25.1019 28.3456 25.1019 30.0519C25.1019 31.4581 24.8581 32.6581 24.3331 33.6706C23.8081 34.7019 23.0769 35.5456 22.1581 36.2019C21.2581 36.8544 20.1894 37.3269 19.0269 37.64C17.8831 37.9494 16.6794 38.1162 15.4456 38.1162H2V10.4562H15.0088V10.4431ZM33.7625 33.2469C34.5875 34.0494 35.7744 34.4525 37.3138 34.4525C38.42 34.4525 39.3763 34.175 40.1825 33.6144C40.9775 33.0706 41.4575 32.4706 41.645 31.8519H46.4975C45.7419 34.2519 44.5325 35.9769 42.935 37.0081C41.3413 38.0581 39.4025 38.5644 37.16 38.5644C35.5906 38.5644 34.19 38.3206 32.9 37.8144C31.6381 37.3081 30.575 36.5956 29.675 35.6769C28.805 34.7581 28.1319 33.6519 27.6556 32.3581C27.1813 31.0644 26.9563 29.6394 26.9563 28.1019C26.9563 26.5962 27.2094 25.2144 27.7119 23.9206C28.2181 22.6081 28.9194 21.5206 29.8119 20.5644C30.74 19.6081 31.805 18.8862 33.0669 18.3256C34.3288 17.765 35.6919 17.5137 37.2294 17.5137C38.9356 17.5137 40.3981 17.8212 41.6919 18.4944C42.9481 19.1319 43.9794 20.0319 44.8044 21.1194C45.6294 22.2181 46.2106 23.4819 46.5669 24.9069C46.9231 26.3131 47.0356 27.7944 46.9606 29.3694H32.5419C32.5419 30.9444 33.0669 32.4294 33.8731 33.2412L33.7231 33.2975L33.7625 33.2469ZM14.5625 33.3406C15.1569 33.3406 15.725 33.2844 16.2613 33.1662C16.805 33.0537 17.2888 32.8569 17.6919 32.6037C18.0856 32.3506 18.4231 31.9887 18.6669 31.5106C18.9106 31.0606 19.0231 30.4419 19.0231 29.7106C19.0231 28.3044 18.6106 27.2919 17.8231 26.6731C17.0169 26.0731 15.9669 25.7731 14.6544 25.7731H8.075V33.3669H14.5625V33.3106V33.3406ZM40.0756 22.7469C39.4156 22.025 38.3131 21.6369 36.9688 21.6369C36.0913 21.6369 35.3656 21.7756 34.7825 22.0831C34.2163 22.3644 33.7513 22.7394 33.395 23.1894C33.0388 23.6394 32.8006 24.0894 32.66 24.5956C32.5194 25.0831 32.435 25.5331 32.4069 25.9269H41.3356C41.2044 24.5206 40.7169 23.4894 40.0606 22.7581V22.7769L40.0756 22.7469ZM14.225 21.5937C15.3013 21.5937 16.1938 21.3425 16.8969 20.8212C17.5981 20.315 17.9356 19.4712 17.9356 18.3125C17.9356 17.6675 17.8044 17.1406 17.5981 16.7262C17.3544 16.3137 17.0356 15.995 16.6606 15.7662C16.2669 15.5337 15.8169 15.3725 15.3106 15.2844C14.8044 15.185 14.2606 15.1456 13.7356 15.1456H8.05625V21.5956H14.225V21.5937ZM31.2838 12.2975H42.4738V15.0237H31.2838V12.275V12.2937V12.2975Z" fill="black"/>
</svg>
