<svg width="512" height="512" viewBox="0 0 512 512" fill="none" xmlns="http://www.w3.org/2000/svg">
<path d="M89.0078 122.758L87.25 124.445V256V387.555L89.0078 389.242L90.6953 391H193.422H296.078V406.117C296.078 421.305 296.078 421.305 297.836 422.992L299.523 424.75H330.18H360.836L362.523 422.992C364.281 421.305 364.281 421.305 364.281 406.117V391H392.758H421.305L422.992 389.242L424.75 387.555V256V124.445L422.992 122.758L421.305 121H256H90.6953L89.0078 122.758ZM413.5 149.125V166H256H98.5V149.125V132.25H256H413.5V149.125ZM239.125 227.875V278.5H168.812H98.5V227.875V177.25H168.812H239.125V227.875ZM401.828 177.883C401.125 178.516 251.852 273.086 250.938 273.438C250.656 273.578 250.375 251.992 250.375 225.484V177.25H326.453C369.414 177.25 402.25 177.531 401.828 177.883ZM413.5 231.391V278.5H381.367H349.164L342.203 267.25C334.328 254.383 334.117 253.328 338.758 248.195C344.242 242.078 350.922 242.852 371.102 251.711C374.688 253.258 380.312 255.086 383.547 255.719C389.172 256.844 389.875 256.844 394.234 255.789C396.836 255.086 400 253.82 401.266 252.836C403.727 250.938 406.75 246.297 407.523 243.273C407.945 241.516 407.875 241.445 402.461 240.742C398.734 240.25 396.906 240.32 396.695 240.812C396.555 241.164 395.641 242.289 394.727 243.203C393.109 244.82 392.617 244.891 387.625 244.609C383.195 244.328 380.945 243.695 375.531 241.234C371.875 239.617 365.688 237.156 361.82 235.75C355.492 233.43 354.086 233.219 347.758 233.148C342.062 233.148 340.094 233.43 337.422 234.695C331.164 237.578 325.75 244.961 324.344 252.625C323.922 254.664 321.25 259.867 316.891 267.109L310.07 278.5H287.148H264.227L281.383 267.602C290.805 261.625 324.203 240.461 355.492 220.562C386.852 200.664 412.656 184.352 413.008 184.352C413.289 184.281 413.5 205.445 413.5 231.391ZM350.852 302.688L366.32 327.859L362.523 331.586C358.305 335.805 354.789 342.414 353.734 348.039C353.383 350.078 353.031 354.789 353.031 358.375V364.984H330.18H307.328V359.5C307.328 346.773 304.375 338.617 297.273 331.797L293.125 327.789L307.258 304.375C314.992 291.508 321.812 280.328 322.375 279.555C323.359 278.289 323.43 279.625 323.5 293.758V309.297L320.969 310.914C315.766 314.078 312.742 321.672 314.289 327.508C316.188 334.609 322.164 339.25 329.477 339.25C343.047 339.25 350.148 323.992 341.359 313.727C340.094 312.25 338.055 310.633 336.859 310.141L334.75 309.297V293.055C334.75 284.125 334.891 277.023 335.102 277.164C335.242 277.375 342.344 288.836 350.852 302.688ZM301.352 292.703C300.367 294.391 298.82 296.922 297.977 298.328L296.43 301H257.195H217.961L216.273 302.758L214.516 304.445V334.75V365.055L216.273 366.742L217.961 368.5H257.055H296.078V374.125V379.75H197.289H98.5V334.75V289.75H200.875H303.18L301.352 292.703ZM413.5 334.75V379.75H388.891H364.281V374.125V368.5H381.508H398.805L400.492 366.742L402.25 365.055V334.891C402.25 306.203 402.18 304.586 400.914 303.039C399.578 301.352 399.438 301.352 381.086 301L362.664 300.648L359.641 295.727C357.953 292.984 356.547 290.594 356.547 290.242C356.547 289.961 369.344 289.75 385.023 289.75H413.5V334.75ZM286.094 318.016C284.125 321.25 281.875 324.766 281.172 325.961C279.695 328.422 279.484 331.867 280.82 333.484C281.242 334.047 283.07 335.312 284.828 336.367C290.875 339.812 294.883 345.93 295.727 353.172L296.219 357.25H260.992H225.766V334.75V312.25H257.758H289.75L286.094 318.016ZM391 334.75V357.25H377.57H364.07L364.492 353.102C365.125 345.578 369.555 338.547 375.672 335.383C378.555 333.906 379.75 332.219 379.75 329.688C379.75 328 379.539 327.648 373.562 318.016L369.906 312.25H380.453H391V334.75ZM331.445 320.055C333.484 321.18 334.047 322.023 334.047 324.344C334.047 328.211 328.844 329.758 326.383 326.523C324.695 324.414 324.977 322.445 327.156 320.477C328.844 319.07 329.406 319 331.445 320.055ZM353.031 394.867V413.5H330.18H307.328V394.867V376.234H330.18H353.031V394.867Z" fill="#FFB22C"/>
<path d="M109.75 149.125V154.75H115.375H121V149.125V143.5H115.375H109.75V149.125Z" fill="#FFB22C"/>
<path d="M132.25 149.125V154.75H137.875H143.5V149.125V143.5H137.875H132.25V149.125Z" fill="#FFB22C"/>
<path d="M154.75 149.125V154.75H160.375H166V149.125V143.5H160.375H154.75V149.125Z" fill="#FFB22C"/>
<path d="M109.75 194.125V199.75H132.25H154.75V194.125V188.5H132.25H109.75V194.125Z" fill="#FFB22C"/>
<path d="M109.75 216.625V222.25H154.75H199.75V216.625V211H154.75H109.75V216.625Z" fill="#FFB22C"/>
<path d="M111.508 240.883C109.75 242.57 109.75 242.711 109.75 256C109.75 269.289 109.75 269.43 111.508 271.117L113.195 272.875H146.312H179.43L181.117 271.117C182.875 269.43 182.875 269.289 182.875 256C182.875 242.711 182.875 242.57 181.117 240.883L179.43 239.125H146.312H113.195L111.508 240.883ZM171.625 256V261.625H146.312H121V256V250.375H146.312H171.625V256Z" fill="#FFB22C"/>
<path d="M111.508 302.758L109.75 304.445V334.75V365.055L111.508 366.742L113.195 368.5H156.508H199.891L201.93 366.461L203.969 364.422V334.75V305.078L201.93 303.039L199.891 301H156.508H113.195L111.508 302.758ZM192.719 334.75V357.25H156.859H121V334.75V312.25H156.859H192.719V334.75Z" fill="#FFB22C"/>
</svg>
