<svg width="512" height="512" viewBox="0 0 512 512" fill="none" xmlns="http://www.w3.org/2000/svg">
<path d="M143.486 151.306C101.94 155.315 65.3145 183.467 51.6482 222.006C44.3595 242.415 44.1773 268.198 51.1926 289.244C63.4923 326.326 100.665 356.391 139.659 360.765C156.696 362.769 180.111 358.943 195.418 351.745C208.264 345.732 216.828 338.808 232.408 322.044C236.599 317.488 256.46 296.715 276.504 275.669C307.572 243.143 312.948 237.13 312.857 234.944C312.857 233.486 312.766 224.466 312.674 214.991L312.492 197.68H292.175H271.949L232.317 239.317C210.542 262.276 189.587 284.142 185.851 287.969C174.645 299.266 164.532 303.093 148.497 302.182C121.62 300.633 104.765 282.685 104.765 255.534C104.765 226.744 124.262 208.34 153.508 209.707C166.172 210.344 177.378 215.629 189.587 226.653L195.873 232.484V212.622V192.851L215.553 193.398L235.232 194.036L232.408 190.483C227.306 184.105 215.826 174.083 206.624 167.888C192.411 158.412 178.654 153.128 163.074 151.215C154.692 150.213 154.236 150.213 143.486 151.306ZM171.274 163.97C180.202 166.157 193.14 172.079 201.431 177.727L207.262 181.736L196.146 182.01L184.94 182.283V195.311V208.34L177.925 204.878C167.174 199.594 160.887 198.318 148.497 198.865C135.65 199.411 125.902 202.236 117.52 207.884C114.331 210.071 110.869 212.349 109.867 213.078C108.318 214.08 105.676 214.171 97.2025 213.624L86.5428 212.986V200.596L86.6339 188.114L91.5538 184.196C114.149 166.157 146.219 158.048 171.274 163.97ZM91.9182 220.457H103.58L100.118 227.108C95.5625 235.855 93.8315 243.326 93.8315 255.17C93.8315 270.02 97.3847 281.774 104.947 291.795C108.227 296.169 108.409 296.898 108.409 303.002C108.409 306.555 108.136 312.022 107.862 315.119L107.224 320.677H95.1981H83.1718L78.6163 314.937C68.8677 302.728 63.7656 293.162 59.9391 280.042C58.1169 273.756 57.8436 270.749 57.8436 256.901C57.8436 242.323 58.1169 240.228 60.3946 231.846C63.4012 220.822 69.5055 208.249 75.3364 200.869L79.7096 195.403L79.983 207.884L80.2563 220.457H91.9182ZM293.177 209.16L301.559 209.798V221.642V233.395L289.533 245.877C282.973 252.71 263.202 273.392 245.618 291.795L213.639 325.323L213.093 319.584C212.728 316.395 212.455 310.291 212.364 305.826L212.273 297.9H202.615H192.958L197.422 292.707C199.791 289.791 218.741 269.747 239.423 248.063L277.051 208.613H280.969C283.155 208.613 288.622 208.887 293.177 209.16ZM135.286 311.566C144.032 313.844 158.427 314.026 166.263 312.022C169.269 311.293 174.645 309.197 178.198 307.466C184.485 304.368 185.122 304.277 195.326 304.277H205.895V318.399V332.43L201.795 335.254C195.509 339.536 183.482 345.003 175.374 347.19C169.178 348.921 165.534 349.194 151.23 349.285C135.377 349.285 133.919 349.194 126.357 346.825C116.335 343.727 104.218 337.714 96.5647 331.974L90.6427 327.51L102.76 327.237L114.786 326.963V314.755V302.546L121.437 306.1C125.173 308.104 131.368 310.564 135.286 311.566Z" fill="#FFB22C"/>
<path d="M348.024 151.215C333.538 153.128 319.052 158.777 305.386 167.888C296.184 174.083 284.704 184.105 279.693 190.483L276.869 194.036L297.368 193.398L317.959 192.852L318.141 211.164L318.414 229.568L325.247 224.102C333.265 217.724 341.738 213.078 349.3 210.891C357.135 208.613 369.799 209.342 379.457 212.713L386.746 215.173L407.974 214.535L429.111 213.898V203.147C429.111 197.316 428.838 188.661 428.473 184.014L427.927 175.632L422.642 171.714C415.445 166.43 401.05 159.141 392.121 156.408C377.726 151.853 359.504 149.757 348.024 151.215Z" fill="#FFB22C"/>
<path d="M435.671 201.324L435.944 220.002L415.9 220.822C404.876 221.277 395.674 221.733 395.492 221.915C395.31 222.097 396.312 223.464 397.588 225.104C406.425 235.49 409.614 253.894 405.423 270.111C403.874 276.216 403.601 280.225 403.601 298.993V320.677H423.554H443.598L447.697 314.937C461.273 295.895 468.015 270.203 465.555 247.334C462.73 222.644 454.166 202.418 440.044 187.567L435.398 182.647L435.671 201.324Z" fill="#FFB22C"/>
<path d="M201.34 217.542V237.313L208.902 244.875L216.373 252.345L236.416 232.302L256.46 212.258L249.172 204.969L241.883 197.68H221.657H201.34V217.542Z" fill="#FFB22C"/>
<path d="M279.693 278.767L259.285 298.538L262.565 302.638C264.387 304.824 269.853 311.111 274.864 316.577L283.793 326.508L284.066 305.462L284.248 284.507L295.364 283.96C301.468 283.596 309.668 283.323 313.585 283.323C317.594 283.323 320.692 282.958 320.51 282.503C320.419 282.047 315.681 276.581 310.214 270.385L300.101 258.997L279.693 278.767Z" fill="#FFB22C"/>
<path d="M393.123 290.611C385.379 298.537 371.257 303.002 356.771 302.273C347.296 301.726 339.825 299.175 332.445 293.8L327.981 290.611H309.759H291.537V312.659V334.708L294.544 337.259C305.659 347.007 319.052 354.023 332.992 357.576C344.745 360.582 361.873 361.949 372.35 360.765C393.397 358.396 414.807 348.465 431.298 333.341L436.673 328.421L429.02 327.783C424.829 327.51 415.9 327.237 409.341 327.146L397.223 327.054L397.041 307.011L396.768 286.876L393.123 290.611Z" fill="#FFB22C"/>
</svg>
