<svg width="512" height="512" viewBox="0 0 512 512" fill="none" xmlns="http://www.w3.org/2000/svg">
<path d="M371.277 76.5433C369.614 77.0051 347.908 103.422 345.876 107.486C344.213 110.719 345.137 114.136 348.555 116.999C354.281 121.802 357.052 120.048 370.63 103.145C383.284 87.3501 383.931 86.2417 382.545 81.9005C381.067 77.2822 376.541 75.1578 371.277 76.5433Z" fill="#FFB22C"/>
<path d="M74.8749 87.8118L72.1963 90.4904V157.825C72.1963 220.172 72.381 225.252 73.8589 227.099C77.184 231.533 85.4046 231.163 87.8061 226.545C88.545 225.344 88.8221 205.578 88.8221 163.736V102.775L154.771 102.498C219.242 102.221 220.72 102.221 222.752 100.374C225.8 97.6026 226.632 94.6469 225.431 90.9522C223.491 84.8561 226.724 85.1332 148.398 85.1332H77.5535L74.8749 87.8118Z" fill="#FFB22C"/>
<path d="M268.843 91.0446C251.386 95.7552 240.394 113.028 237.346 140.737L236.238 150.62L226.447 158.472L216.564 166.323L210.191 163.921C193.842 158.01 173.522 161.058 156.803 171.957C142.949 181.009 131.403 195.048 126.138 209.55C123.829 215.738 123.459 218.14 123.459 225.991C123.459 231.071 123.736 236.336 124.106 237.629C124.66 239.661 124.291 240.4 121.058 242.801C118.102 245.11 116.717 245.572 114.315 245.203C112.098 244.833 107.295 246.404 93.9024 251.853C84.204 255.733 75.614 259.612 74.7827 260.351C72.1041 262.752 71.827 266.724 74.0438 272.266C75.2445 275.037 75.9834 277.438 75.7987 277.623C75.614 277.716 71.6423 279.378 66.9316 281.318C57.3256 285.29 55.2012 287.137 55.2012 291.386C55.2012 294.988 74.4132 342.556 76.9995 345.327C80.6017 349.207 81.8948 349.022 96.9504 342.926L101.846 340.986L103.693 345.42C106.279 351.516 108.773 353.917 112.56 353.917C116.162 353.917 147.567 341.448 150.522 338.769C151.908 337.568 152.924 337.291 153.571 337.938C154.032 338.4 167.887 356.688 184.328 378.486L214.255 418.111L142.117 418.573C86.0513 418.943 69.4255 419.312 67.8553 420.236C62.9599 423.007 62.3133 430.026 66.7469 433.721L69.6102 436.123H242.703C431.037 436.123 419.676 436.4 422.077 431.042C423.74 427.348 423.463 425.316 420.507 422.083L417.829 419.035L335.346 418.573C253.787 418.111 253.048 418.111 257.759 416.356C265.148 413.77 268.104 408.228 265.056 402.594C264.502 401.485 252.217 383.197 237.716 361.953C223.307 340.709 211.669 323.067 211.946 322.882C212.223 322.605 231.712 320.296 255.45 317.802L298.492 313.092L305.604 319.742C329.989 342.464 354.558 348.19 371.831 334.982C376.634 331.288 383.007 322.051 385.778 314.662C397.878 282.703 390.858 229.039 368.136 179.254C340.611 119.031 299.785 82.6393 268.843 91.0446ZM271.706 108.871C271.706 109.333 271.06 112.104 270.228 115.152C267.919 123.927 267.457 152.283 269.397 165.953C274.292 201.791 287.131 237.352 306.528 269.403C318.628 289.354 337.193 310.136 351.141 319.28L357.976 323.806L354.558 324.637C349.386 325.93 343.659 324.637 335.623 320.666C304.865 305.148 270.783 248.897 258.775 193.848C254.988 176.575 253.88 164.66 254.434 148.958C254.896 134.456 256.189 128.083 260.345 119.586C263.301 113.674 271.799 105.638 271.706 108.871ZM297.384 114.044C303.942 117.923 315.487 128.73 322.6 137.597C360.654 184.703 383.469 263.676 370.815 304.779C369.152 310.321 369.244 310.321 361.486 305.61C346.984 296.928 329.527 275.868 314.841 249.452L311.423 243.356L320.198 239.014C339.41 229.501 349.293 214.722 344.306 203.084C339.78 192.462 322.415 188.767 304.034 194.494C299.693 195.88 295.537 197.173 294.705 197.45C293.597 197.819 292.766 195.602 290.364 185.165C286.392 167.985 285.561 162.628 285.007 147.48C284.36 133.81 285.376 123.465 288.055 114.875C289.81 109.425 289.717 109.425 297.384 114.044ZM243.073 203.823C250.185 232.456 263.301 263.122 278.726 286.767C282.421 292.494 285.192 297.205 284.822 297.297C284.453 297.389 264.225 299.606 239.84 302.192C215.456 304.779 185.529 307.919 173.337 309.212C161.145 310.505 149.968 311.614 148.49 311.706C145.904 311.891 145.719 311.521 141.009 300.068L136.113 288.338L144.981 282.057C149.876 278.547 169.55 264.784 188.577 251.484C207.604 238.183 224.138 226.176 225.339 224.975C227.555 222.481 228.017 218.324 226.447 215.276C225.062 212.782 220.166 210.473 217.488 211.212C216.194 211.489 196.243 225.067 173.152 241.323C149.968 257.58 130.664 270.973 130.202 271.065C128.909 271.342 125.491 262.198 126.415 260.905C126.785 260.258 151.908 240.03 182.112 215.831L237.069 171.957L239.009 183.687C240.117 190.245 241.872 199.205 243.073 203.823ZM200.4 178.884C198.645 180.547 139.993 227.192 139.808 227.007C139.716 226.822 139.993 224.513 140.547 221.834C142.579 211.028 150.245 198.928 160.221 190.615C167.425 184.703 178.602 179.438 185.714 178.607C191.163 178.053 201.139 178.238 200.4 178.884ZM326.571 209.457C329.065 210.381 328.234 212.228 323.339 216.662C319.459 220.172 306.897 227.376 304.773 227.376C303.849 227.376 299.324 215.276 299.878 214.445C300.34 213.706 309.391 210.473 313.733 209.55C316.596 208.903 325.001 208.811 326.571 209.457ZM120.596 296.373C127.523 313.461 132.881 327.778 132.511 328.147C131.68 328.978 118.195 334.613 117.917 334.336C117.548 333.966 93.3482 274.206 92.794 272.543C92.5169 271.435 94.0871 270.326 99.1672 268.202C102.862 266.632 106.372 265.339 106.926 265.246C107.48 265.246 113.669 279.286 120.596 296.373ZM87.5291 305.979C90.023 312.26 92.8863 319.188 93.7176 321.312L95.2879 325.284L91.9627 326.669C90.1154 327.408 88.2681 328.055 87.991 328.055C87.6215 328.055 84.6658 321.497 81.5254 313.461C78.2926 305.518 75.5216 298.405 75.2445 297.759C74.7827 296.65 80.1399 293.695 81.8948 294.249C82.449 294.341 84.9429 299.606 87.5291 305.979ZM218.596 364.077C232.913 385.137 244.458 402.686 244.089 403.056C243.812 403.333 240.302 404.995 236.238 406.566C229.403 409.244 228.941 409.337 227.833 407.766C227.186 406.843 213.331 388.462 196.982 366.848L167.425 327.593L175.461 326.577C179.895 325.93 185.529 325.561 188.023 325.653L192.549 325.746L218.596 364.077Z" fill="#FFB22C"/>
<path d="M391.505 121.341C383.099 127.621 375.71 133.625 375.248 134.826C373.493 138.428 374.048 141.476 376.911 144.34C380.144 147.572 383.561 147.757 387.902 145.171C394.183 141.292 416.443 124.019 417.09 122.541C418.568 118.754 417.644 114.875 414.781 112.474C409.885 108.317 408.223 108.964 391.505 121.341Z" fill="#FFB22C"/>
<path d="M98.0591 119.308V127.621H106.372H114.685V119.308V110.996H106.372H98.0591V119.308Z" fill="#FFB22C"/>
<path d="M98.0591 145.171V153.484H106.372H114.685V145.171V136.858H106.372H98.0591V145.171Z" fill="#FFB22C"/>
<path d="M415.796 158.841C398.432 165.769 397.693 166.138 396.03 169.463C394.645 172.419 394.552 173.343 395.476 175.744C396.954 179.162 399.725 181.194 403.05 181.194C406.929 181.194 438.241 168.632 440.55 166.138C442.767 163.829 443.229 159.211 441.566 156.07C440.828 154.685 435.563 151.544 434.085 151.637C433.9 151.637 425.68 154.869 415.796 158.841Z" fill="#FFB22C"/>
<path d="M98.0591 170.571V179.346H106.372H114.685V170.571V161.797H106.372H98.0591V170.571Z" fill="#FFB22C"/>
<path d="M430.575 201.144C425.218 201.791 418.752 202.622 416.074 202.899C412.656 203.269 410.624 204.193 408.962 205.855C403.789 211.028 407.392 219.987 414.596 219.987C416.351 219.987 425.126 219.156 434.085 218.047C451.45 216.108 454.221 215.092 455.883 210.566C456.992 207.518 455.976 203.915 453.482 201.514C451.08 199.297 445.631 199.205 430.575 201.144Z" fill="#FFB22C"/>
<path d="M411.086 244.464C408.13 246.034 406.467 250.375 407.391 253.793C408.592 258.596 411.455 259.612 430.575 262.475C440.366 264.046 448.956 265.246 449.602 265.246C450.341 265.246 452.188 264.046 453.851 262.568C457.73 259.15 457.915 254.347 454.405 250.837C452.373 248.713 450.249 248.159 434.639 245.757C414.596 242.709 414.318 242.709 411.086 244.464Z" fill="#FFB22C"/>
<path d="M436.394 420.051C432.977 421.806 431.129 425.685 431.961 429.472C432.699 433.167 435.286 435.291 439.719 435.846C442.952 436.307 443.783 436.03 446.277 433.536C450.895 428.826 449.787 422.36 443.968 419.866C440.089 418.296 439.996 418.296 436.394 420.051Z" fill="#FFB22C"/>
</svg>
