<svg width="48" height="48" viewBox="0 0 48 48" fill="none" xmlns="http://www.w3.org/2000/svg">
<path fill-rule="evenodd" clip-rule="evenodd" d="M29.3333 44H24.0053H18.672C18.672 44 18.6867 40.8373 18.672 38.6667C11.3747 40.2373 9.33867 34.6667 9.33867 34.6667C8.00534 32 6.672 30.6667 6.672 30.6667C4.00534 29.0827 6.672 29.3333 6.672 29.3333C9.33867 29.3333 10.672 32 10.672 32C13.012 35.9747 17.176 35.3347 18.672 34.6667C18.672 33.3333 19.256 31.3173 20.0053 30.6667C14.1813 30.0107 9.33333 26.6667 9.33333 20C9.33333 13.3333 10.672 12 12.0053 10.6667C11.736 10.0093 10.62 7.58 12.0467 4C12.0467 4 14.6667 4 17.3333 8C18.6547 6.67867 22.6667 6.66667 24.0013 6.66667C25.3333 6.66667 29.3453 6.67867 30.6667 8C33.3333 4 35.9587 4 35.9587 4C37.3853 7.58 36.2693 10.0093 36 10.6667C37.3333 12 38.6667 13.3333 38.6667 20C38.6667 26.6667 33.824 30.0107 28 30.6667C28.7493 31.3173 29.3333 33.6133 29.3333 34.6667V44Z" fill="#141313"/>
</svg>
