<svg width="48" height="48" viewBox="0 0 48 48" fill="none" xmlns="http://www.w3.org/2000/svg">
<path d="M39.7377 10.1539H8.26231C6.75991 10.1539 5.53845 11.4519 5.53845 13.0475V34.9525C5.53845 36.5481 6.75991 37.8462 8.26231 37.8462H39.7377C41.2401 37.8462 42.4615 36.5481 42.4615 34.9525V13.0475C42.4615 11.4519 41.2401 10.1539 39.7377 10.1539ZM28.1026 24.0005L40.1538 15.3031V32.6971L28.1026 24.0005ZM39.7377 12.4616C39.82 12.4616 39.9035 12.5113 39.976 12.5857L24 24.1156L8.02399 12.5857C8.09648 12.5113 8.17996 12.4616 8.26231 12.4616H39.7377ZM7.84614 32.697V15.3031L19.8966 23.9999L7.84614 32.697ZM8.26231 35.5385C8.17996 35.5385 8.09648 35.4885 8.02399 35.4143L21.8682 25.4228L23.3254 26.4745C23.36 26.4996 23.4 26.5098 23.4364 26.5304C23.472 26.5506 23.5052 26.5677 23.5425 26.584C23.6901 26.6485 23.8433 26.6923 23.9985 26.6923L24 26.692L24.0015 26.6923C24.1567 26.6923 24.3099 26.6485 24.4575 26.584C24.4948 26.5677 24.528 26.5506 24.5636 26.5304C24.6 26.5098 24.64 26.4996 24.6746 26.4745L26.1311 25.4233L39.976 35.4143C39.9035 35.4886 39.82 35.5385 39.7377 35.5385H8.26231Z" fill="black"/>
</svg>
