<svg width="48" height="48" viewBox="0 0 48 48" fill="none" xmlns="http://www.w3.org/2000/svg">
<path d="M37.3334 9H10.6667C9.3406 9 8.06884 9.52678 7.13115 10.4645C6.19347 11.4021 5.66669 12.6739 5.66669 14V34C5.66669 35.3261 6.19347 36.5979 7.13115 37.5355C8.06884 38.4732 9.3406 39 10.6667 39H37.3334C38.6594 39 39.9312 38.4732 40.8689 37.5355C41.8066 36.5979 42.3334 35.3261 42.3334 34V14C42.3334 12.6739 41.8066 11.4021 40.8689 10.4645C39.9312 9.52678 38.6594 9 37.3334 9ZM36.7867 30.0333C36.9559 30.1784 37.0943 30.3559 37.1937 30.5554C37.2931 30.7549 37.3515 30.9723 37.3654 31.1947C37.3793 31.4172 37.3484 31.6401 37.2746 31.8505C37.2008 32.0608 37.0856 32.2541 36.9358 32.4191C36.7859 32.5841 36.6045 32.7174 36.4023 32.8111C36.2 32.9047 35.9811 32.9568 35.7583 32.9644C35.5356 32.9719 35.3136 32.9347 35.1055 32.8549C34.8973 32.7752 34.7073 32.6545 34.5467 32.5L27.6417 26.2333C26.5634 26.9527 25.2962 27.3366 24 27.3366C22.7038 27.3366 21.4366 26.9527 20.3584 26.2333L13.4534 32.5C13.124 32.7823 12.6976 32.9251 12.2647 32.8981C11.8317 32.871 11.4264 32.6762 11.1348 32.3551C10.8431 32.034 10.6882 31.6118 10.7029 31.1783C10.7176 30.7447 10.9007 30.334 11.2134 30.0333L17.8067 24.0483L11.2117 18.05C11.0497 17.9027 10.9184 17.7249 10.8251 17.5269C10.7318 17.3288 10.6785 17.1143 10.6681 16.8956C10.6472 16.454 10.8025 16.0221 11.1 15.695C11.3975 15.3679 11.8127 15.1724 12.2544 15.1514C12.696 15.1305 13.1279 15.2858 13.455 15.5833L21.7534 23.1317C22.3687 23.6921 23.1711 24.0027 24.0034 24.0027C24.8357 24.0027 25.638 23.6921 26.2534 23.1317L34.545 15.5833C34.8721 15.2858 35.304 15.1305 35.7456 15.1514C36.1873 15.1724 36.6025 15.3679 36.9 15.695C37.1975 16.0221 37.3529 16.454 37.3319 16.8956C37.311 17.3373 37.1155 17.7525 36.7884 18.05L30.195 24.05L36.7867 30.0333Z" fill="black"/>
</svg>
