<svg width="48" height="48" viewBox="0 0 48 48" fill="none" xmlns="http://www.w3.org/2000/svg">
<path d="M24 5.59998C13.8544 5.59998 5.6 13.8544 5.6 24C5.6 27.168 6.4184 30.2832 7.9704 33.032L5.6296 41.384C5.5528 41.6584 5.6272 41.9528 5.8256 42.1568C5.9784 42.3144 6.1864 42.4 6.4 42.4C6.464 42.4 6.5288 42.392 6.592 42.3768L15.3088 40.2176C17.9704 41.6464 20.968 42.4 24 42.4C34.1456 42.4 42.4 34.1456 42.4 24C42.4 13.8544 34.1456 5.59998 24 5.59998ZM33.256 30.4928C32.8624 31.5824 30.9744 32.5768 30.0672 32.7104C29.2528 32.8296 28.2224 32.8808 27.0912 32.5256C26.4056 32.3096 25.5256 32.0232 24.3984 31.5424C19.66 29.5216 16.5656 24.8104 16.3288 24.4992C16.0928 24.188 14.4 21.9704 14.4 19.6752C14.4 17.38 15.62 16.2512 16.0536 15.784C16.4872 15.3168 16.9984 15.2 17.3136 15.2C17.6288 15.2 17.9432 15.204 18.2192 15.2168C18.5096 15.2312 18.8992 15.1072 19.2824 16.0176C19.676 16.952 20.6208 19.2472 20.7376 19.4816C20.856 19.7152 20.9344 19.988 20.7776 20.2992C20.6208 20.6104 20.5424 20.8048 20.3056 21.0776C20.0688 21.3504 19.8096 21.6856 19.5968 21.8952C19.36 22.128 19.1144 22.38 19.3896 22.8472C19.6648 23.3144 20.6128 24.8416 22.0176 26.0784C23.8216 27.6672 25.344 28.16 25.816 28.3936C26.288 28.6272 26.564 28.588 26.8392 28.2768C27.1144 27.9648 28.02 26.9144 28.3344 26.448C28.6488 25.9816 28.964 26.0584 29.3976 26.2144C29.8312 26.3696 32.1536 27.4976 32.6256 27.7312C33.0976 27.9648 33.4128 28.0816 33.5312 28.276C33.6496 28.4696 33.6496 29.404 33.256 30.4928Z" fill="#40C057"/>
</svg>
