<svg width="512" height="512" viewBox="0 0 512 512" fill="none" xmlns="http://www.w3.org/2000/svg">
<rect width="512" height="512" fill="black"/>
<path d="M132.5 141.1C86.9 145.5 46.7 176.4 31.7 218.7C23.7 241.1 23.5 269.4 31.2 292.5C44.7 333.2 85.5 366.2 128.3 371C147 373.2 172.7 369 189.5 361.1C203.6 354.5 213 346.9 230.1 328.5C234.7 323.5 256.5 300.7 278.5 277.6C312.6 241.9 318.5 235.3 318.4 232.9C318.4 231.3 318.3 221.4 318.2 211L318 192H295.7H273.5L230 237.7C206.1 262.9 183.1 286.9 179 291.1C166.7 303.5 155.6 307.7 138 306.7C108.5 305 90 285.3 90 255.5C90 223.9 111.4 203.7 143.5 205.2C157.4 205.9 169.7 211.7 183.1 223.8L190 230.2V208.4V186.7L211.6 187.3L233.2 188L230.1 184.1C224.5 177.1 211.9 166.1 201.8 159.3C186.2 148.9 171.1 143.1 154 141C144.8 139.9 144.3 139.9 132.5 141.1ZM163 155C172.8 157.4 187 163.9 196.1 170.1L202.5 174.5L190.3 174.8L178 175.1V189.4V203.7L170.3 199.9C158.5 194.1 151.6 192.7 138 193.3C123.9 193.9 113.2 197 104 203.2C100.5 205.6 96.7 208.1 95.6 208.9C93.9 210 91 210.1 81.7 209.5L70 208.8V195.2L70.1 181.5L75.5 177.2C100.3 157.4 135.5 148.5 163 155ZM75.9 217H88.7L84.9 224.3C79.9 233.9 78 242.1 78 255.1C78 271.4 81.9 284.3 90.2 295.3C93.8 300.1 94 300.9 94 307.6C94 311.5 93.7 317.5 93.4 320.9L92.7 327H79.5H66.3L61.3 320.7C50.6 307.3 45 296.8 40.8 282.4C38.8 275.5 38.5 272.2 38.5 257C38.5 241 38.8 238.7 41.3 229.5C44.6 217.4 51.3 203.6 57.7 195.5L62.5 189.5L62.8 203.2L63.1 217H75.9ZM296.8 204.6L306 205.3V218.3V231.2L292.8 244.9C285.6 252.4 263.9 275.1 244.6 295.3L209.5 332.1L208.9 325.8C208.5 322.3 208.2 315.6 208.1 310.7L208 302H197.4H186.8L191.7 296.3C194.3 293.1 215.1 271.1 237.8 247.3L279.1 204H283.4C285.8 204 291.8 204.3 296.8 204.6ZM123.5 317C133.1 319.5 148.9 319.7 157.5 317.5C160.8 316.7 166.7 314.4 170.6 312.5C177.5 309.1 178.2 309 189.4 309H201V324.5V339.9L196.5 343C189.6 347.7 176.4 353.7 167.5 356.1C160.7 358 156.7 358.3 141 358.4C123.6 358.4 122 358.3 113.7 355.7C102.7 352.3 89.4 345.7 81 339.4L74.5 334.5L87.8 334.2L101 333.9V320.5V307.1L108.3 311C112.4 313.2 119.2 315.9 123.5 317Z" fill="#FFB22C"/>
<path d="M357 141C341.1 143.1 325.2 149.3 310.2 159.3C300.1 166.1 287.5 177.1 282 184.1L278.9 188L301.4 187.3L324 186.7L324.2 206.8L324.5 227L332 221C340.8 214 350.1 208.9 358.4 206.5C367 204 380.9 204.8 391.5 208.5L399.5 211.2L422.8 210.5L446 209.8V198C446 191.6 445.7 182.1 445.3 177L444.7 167.8L438.9 163.5C431 157.7 415.2 149.7 405.4 146.7C389.6 141.7 369.6 139.4 357 141Z" fill="#FFB22C"/>
<path d="M453.2 196L453.5 216.5L431.5 217.4C419.4 217.9 409.3 218.4 409.1 218.6C408.9 218.8 410 220.3 411.4 222.1C421.1 233.5 424.6 253.7 420 271.5C418.3 278.2 418 282.6 418 303.2V327H439.9H461.9L466.4 320.7C481.3 299.8 488.7 271.6 486 246.5C482.9 219.4 473.5 197.2 458 180.9L452.9 175.5L453.2 196Z" fill="#FFB22C"/>
<path d="M196 213.8V235.5L204.3 243.8L212.5 252L234.5 230L256.5 208L248.5 200L240.5 192H218.3H196V213.8Z" fill="#FFB22C"/>
<path d="M282 281L259.6 302.7L263.2 307.2C265.2 309.6 271.2 316.5 276.7 322.5L286.5 333.4L286.8 310.3L287 287.3L299.2 286.7C305.9 286.3 314.9 286 319.2 286C323.6 286 327 285.6 326.8 285.1C326.7 284.6 321.5 278.6 315.5 271.8L304.4 259.3L282 281Z" fill="#FFB22C"/>
<path d="M406.5 294C398 302.7 382.5 307.6 366.6 306.8C356.2 306.2 348 303.4 339.9 297.5L335 294H315H295V318.2V342.4L298.3 345.2C310.5 355.9 325.2 363.6 340.5 367.5C353.4 370.8 372.2 372.3 383.7 371C406.8 368.4 430.3 357.5 448.4 340.9L454.3 335.5L445.9 334.8C441.3 334.5 431.5 334.2 424.3 334.1L411 334L410.8 312L410.5 289.9L406.5 294Z" fill="#FFB22C"/>
</svg>
