<svg width="48" height="48" viewBox="0 0 48 48" fill="none" xmlns="http://www.w3.org/2000/svg">
<g clip-path="url(#clip0_234_36)">
<path d="M12.75 15.25H4V44H12.75V15.25Z" fill="#007BB5"/>
<path d="M34.0038 15.25C29 15.25 27.6125 16.89 26.5 19V15.25H17.75V44H26.5V27.75C26.5 25.25 26.5 22.75 30.875 22.75C35.25 22.75 35.25 25.25 35.25 27.75V44H44V27.75C44 20.25 42.75 15.25 34.0038 15.25Z" fill="#007BB5"/>
<path d="M8.375 12.75C10.7912 12.75 12.75 10.7912 12.75 8.375C12.75 5.95875 10.7912 4 8.375 4C5.95875 4 4 5.95875 4 8.375C4 10.7912 5.95875 12.75 8.375 12.75Z" fill="#007BB5"/>
</g>
<defs>
<clipPath id="clip0_234_36">
<rect width="40" height="40" fill="white" transform="translate(4 4)"/>
</clipPath>
</defs>
</svg>
